<?xml version="1.0" encoding="us-ascii" standalone="no"?><svg xmlns="http://www.w3.org/2000/svg" xmlns:xlink="http://www.w3.org/1999/xlink" contentStyleType="text/css" height="253px" preserveAspectRatio="none" style="width:476px;height:253px;background:#FFFFFF;" version="1.1" viewBox="0 0 476 253" width="476px" zoomAndPan="magnify"><defs/><g><!--cluster SSD--><g id="cluster_SSD"><rect fill="none" height="240.6" rx="2.5" ry="2.5" style="stroke:#181818;stroke-width:1.0;" width="345" x="7" y="7"/><rect fill="none" height="10" style="stroke:#181818;stroke-width:1.0;" width="15" x="332" y="12"/><rect fill="none" height="2" style="stroke:#181818;stroke-width:1.0;" width="4" x="330" y="14"/><rect fill="none" height="2" style="stroke:#181818;stroke-width:1.0;" width="4" x="330" y="18"/><text fill="#000000" font-family="sans-serif" font-size="14" font-weight="bold" lengthAdjust="spacing" textLength="28" x="165.5" y="33.0059">SSD</text></g><!--cluster wal_archive--><g id="cluster_wal_archive"><path d="M41.5,111.8 L123.5,111.8 A3.75,3.75 0 0 1 126,114.3 L133,134.5999 L317.5,134.5999 A2.5,2.5 0 0 1 320,137.0999 L320,213.1 A2.5,2.5 0 0 1 317.5,215.6 L41.5,215.6 A2.5,2.5 0 0 1 39,213.1 L39,114.3 A2.5,2.5 0 0 1 41.5,111.8 " fill="none" style="stroke:#000000;stroke-width:1.5;"/><line style="stroke:#000000;stroke-width:1.5;" x1="39" x2="133" y1="134.5999" y2="134.5999"/><text fill="#000000" font-family="sans-serif" font-size="14" font-weight="bold" lengthAdjust="spacing" textLength="81" x="43" y="126.8059">wal_archive</text></g><!--cluster RAM--><g id="cluster_RAM"><rect fill="none" height="96.8" rx="2.5" ry="2.5" style="stroke:#181818;stroke-width:1.0;" width="94" x="376" y="115.3"/><rect fill="none" height="10" style="stroke:#181818;stroke-width:1.0;" width="15" x="450" y="120.3"/><rect fill="none" height="2" style="stroke:#181818;stroke-width:1.0;" width="4" x="448" y="122.3"/><rect fill="none" height="2" style="stroke:#181818;stroke-width:1.0;" width="4" x="448" y="126.3"/><text fill="#000000" font-family="sans-serif" font-size="14" font-weight="bold" lengthAdjust="spacing" textLength="32" x="407" y="141.3059">RAM</text></g><!--entity master--><g id="elem_master"><path d="M272,52 C272,42 304,42 304,42 C304,42 336,42 336,52 L336,77.7999 C336,87.7999 304,87.7999 304,87.7999 C304,87.7999 272,87.7999 272,77.7999 L272,52 " fill="#F1F1F1" style="stroke:#181818;stroke-width:0.5;"/><path d="M272,52 C272,62 304,62 304,62 C304,62 336,62 336,52 " fill="none" style="stroke:#181818;stroke-width:0.5;"/><text fill="#000000" font-family="sans-serif" font-size="14" lengthAdjust="spacing" textLength="44" x="282" y="79.0059">master</text></g><!--entity wal--><g id="elem_wal"><path d="M63,157.3 L63,189.0999 A2.5,2.5 0 0 0 65.5,191.5999 L274.5,191.5999 A2.5,2.5 0 0 0 277,189.0999 L277,164.8 L267,154.8 L65.5,154.8 A2.5,2.5 0 0 0 63,157.3 " fill="#F1F1F1" style="stroke:#181818;stroke-width:0.5;"/><path d="M267,154.8 L267,162.3 A2.5,2.5 0 0 0 269.5,164.8 L277,164.8 " fill="#F1F1F1" style="stroke:#181818;stroke-width:0.5;"/><text fill="#000000" font-family="sans-serif" font-size="14" lengthAdjust="spacing" textLength="194" x="73" y="177.8059">0000000100000000000000D0</text></g><!--entity replica--><g id="elem_replica"><path d="M392,160.3 C392,150.3 423,150.3 423,150.3 C423,150.3 454,150.3 454,160.3 L454,186.0999 C454,196.0999 423,196.0999 423,196.0999 C423,196.0999 392,196.0999 392,186.0999 L392,160.3 " fill="#F1F1F1" style="stroke:#181818;stroke-width:0.5;"/><path d="M392,160.3 C392,170.3 423,170.3 423,170.3 C423,170.3 454,170.3 454,160.3 " fill="none" style="stroke:#181818;stroke-width:0.5;"/><text fill="#000000" font-family="sans-serif" font-size="14" lengthAdjust="spacing" textLength="42" x="402" y="187.3059">replica</text></g><!--link master to wal_archive--><g id="link_master_wal_archive"><path d="M305.68,88.18 C305.9638,91.955 306.2714,96.0478 306.593,100.3261 C306.7538,102.4653 306.9181,104.6508 307.0847,106.8661 C307.168,107.9738 307.2518,109.089 307.336,110.2095 C307.3571,110.4896 307.3782,110.7701 307.3993,111.0508 C307.4099,111.1912 306.9706,105.3486 306.9812,105.4891 " fill="none" id="master-to-wal_archive" style="stroke:#181818;stroke-width:1.0;"/><polygon fill="#181818" points="307.431,111.4722,310.745,102.1977,307.0561,106.4863,302.7675,102.7975,307.431,111.4722" style="stroke:#181818;stroke-width:1.0;"/></g><!--reverse link master to replica--><g id="link_master_replica"><path d="M333.4239,92.1781 C353.7339,110.3281 377.79,131.81 398.09,149.95 " fill="none" id="master-backto-replica" style="stroke:#181818;stroke-width:1.0;"/><polygon fill="#181818" points="328.95,88.18,332.9954,97.1597,332.6782,91.5117,338.3262,91.1945,328.95,88.18" style="stroke:#181818;stroke-width:1.0;"/></g><!--link replica to wal_archive--><g id="link_replica_wal_archive"><path d="M391.9,173.2 C378.655,173.2 365.41,173.2 352.165,173.2 C345.5425,173.2 338.92,173.2 332.2975,173.2 C328.9863,173.2 325.675,173.2 322.3638,173.2 C321.9498,173.2 321.5359,173.2 321.122,173.2 C320.9151,173.2 320.7081,173.2 320.5012,173.2 C320.3977,173.2 326.2942,173.2 326.1907,173.2 " fill="none" id="replica-to-wal_archive" style="stroke:#181818;stroke-width:1.0;"/><polygon fill="#181818" points="320.1907,173.2,329.1907,177.2,325.1907,173.2,329.1907,169.2,320.1907,173.2" style="stroke:#181818;stroke-width:1.0;"/></g><!--SRC=[IyxFBSZFIyqhKGWETb6evb9GI4aiIKnAB4vLo4qiBaaj0egavUUaf1Ofb2Vcn2SM9MTabgM25G8bCdDI5PGC8C3G00Mu62Wf91Q3D06LrdBLSYN3RGfoz4MrgIYr82SpEH6e26AdWcvAVdcUhXsobJ0f6rsuSYYjWAeG0000]--></g></svg>